<?xml version="1.0" encoding="UTF-8"?>
<svg id="Horizontal" xmlns="http://www.w3.org/2000/svg" version="1.1" xmlns:xlink="http://www.w3.org/1999/xlink" viewBox="0 0 929.24 230.35">
  <!-- Generator: Adobe Illustrator 29.5.1, SVG Export Plug-In . SVG Version: 2.1.0 Build 141)  -->
  <defs>
    <style>
      .st0 {
        fill: url(#Gradiente_sem_nome_2);
      }

      .st1 {
        fill: none;
      }

      .st2 {
        fill: url(#Gradiente_sem_nome);
      }

      .st3 {
        clip-path: url(#clippath-1);
      }

      .st4 {
        clip-path: url(#clippath-3);
      }

      .st5 {
        fill: url(#Gradiente_sem_nome_4);
      }

      .st6 {
        fill: #1d1d1b;
      }

      .st7 {
        clip-path: url(#clippath-2);
      }

      .st8 {
        fill: url(#Gradiente_sem_nome_3);
      }

      .st9 {
        clip-path: url(#clippath);
      }

      .st10 {
        fill: #0091f4;
      }
    </style>
    <clipPath id="clippath">
      <path class="st1" d="M120.55,78.61c-.76.3-75.97,29.6-76.7,29.88-9.41,3.59-22.29,8.51-20.76,23.39,1.19,11.54,12.62,17.34,21.81,22,1.54.78,28.96,16.36,43.24,24.49,1.13.65,2.38.99,3.61.99s2.39-.33,3.45-.94c2.33-1.36,3.83-3.97,3.82-6.65-.01-2.5-1.32-4.68-3.59-5.98h-.01c-21.46-12.06-54.05-30.51-55.88-31.91-1.93-1.67-2.88-3.21-2.66-4.33.7-3.68,10.66-7.17,14.92-8.66,1.05-.37,65.8-25.57,73.18-28.44,2.56-1,4.27-3.13,4.69-5.84.42-2.73-.6-5.53-2.6-7.14-1.13-.9-2.47-1.36-3.89-1.36-.86,0-1.75.17-2.63.51"/>
    </clipPath>
    <linearGradient id="Gradiente_sem_nome" data-name="Gradiente sem nome" x1="149.74" y1="1287.08" x2="150.74" y2="1287.08" gradientTransform="translate(-15969.53 137587.49) scale(106.8 -106.8)" gradientUnits="userSpaceOnUse">
      <stop offset="0" stop-color="#ffb600"/>
      <stop offset=".28" stop-color="#ffb600"/>
      <stop offset=".36" stop-color="#fdaa03"/>
      <stop offset=".51" stop-color="#f88b0b"/>
      <stop offset=".71" stop-color="#ef5918"/>
      <stop offset=".95" stop-color="#e4152b"/>
      <stop offset="1" stop-color="#e20530"/>
    </linearGradient>
    <clipPath id="clippath-1">
      <path class="st1" d="M182.29,48.31c-1.9,3.05-1.77,7.64,2.23,10.13,4.54,2.83,44.41,27.62,45.17,28.05,2.61,1.48,5.57,3.15,6.28,5.4,1.68,5.33-6.21,8.81-14.42,11.92-1.45.55-62.84,27.64-69.84,30.73-2.28,1.01-3.72,2.9-3.97,5.19-.27,2.54,1,5.23,3.23,6.86,1.31.96,2.84,1.47,4.41,1.47,1.05,0,2.09-.22,3.09-.67,24.6-10.88,71.39-31.57,72.37-31.98,8.17-3.41,18.33-7.65,19.76-19.45,1.63-13.48-9.67-20.04-18.74-25.31-1.15-.67-26.57-16.45-39.84-24.7-1.25-.78-2.51-1.11-3.71-1.11-2.52,0-4.76,1.47-6,3.46"/>
    </clipPath>
    <linearGradient id="Gradiente_sem_nome_2" data-name="Gradiente sem nome 2" x1="149.39" y1="1287.3" x2="150.39" y2="1287.3" gradientTransform="translate(-15247.05 132751.07) scale(103.05 -103.05)" gradientUnits="userSpaceOnUse">
      <stop offset="0" stop-color="#00ba77"/>
      <stop offset=".1" stop-color="#00b28e"/>
      <stop offset=".28" stop-color="#00a6b3"/>
      <stop offset=".46" stop-color="#009ccf"/>
      <stop offset=".64" stop-color="#0096e3"/>
      <stop offset=".82" stop-color="#0092ef"/>
      <stop offset="1" stop-color="#0091f4"/>
      <stop offset="1" stop-color="#0091f4"/>
    </linearGradient>
    <clipPath id="clippath-2">
      <path class="st1" d="M98.24,119.91c-1.66.9-2.92,2.33-3.55,4.01-.71,1.91-.54,4.01.5,5.91.36.67,36.47,67.08,37.04,68.16,3.99,7.67,8.96,17.22,20.51,17.82.39.02.78.03,1.16.03,12.7,0,18.2-11.13,22.62-20.07.55-1.11,14.12-26.85,21.22-40.3,1.26-2.37,1.18-5-.21-7.21-1.43-2.28-4.15-3.74-6.74-3.64-2.43.09-4.52,1.45-5.72,3.72-.16.31-.69,1.37-1.57,3.12-18.25,36.57-24.21,46.32-25.99,48.06-2.25,2.19-3.61,1.96-4.06,1.88-4-.69-8.01-8.89-10.4-13.79-.62-1.26-31.67-58.45-35.21-64.96-1-1.83-2.6-3.08-4.51-3.5-.5-.11-1-.17-1.51-.17-1.22,0-2.45.32-3.57.93"/>
    </clipPath>
    <linearGradient id="Gradiente_sem_nome_3" data-name="Gradiente sem nome 3" x1="149.52" y1="1287.22" x2="150.52" y2="1287.22" gradientTransform="translate(-15511.52 134518.05) scale(104.37 -104.37)" gradientUnits="userSpaceOnUse">
      <stop offset="0" stop-color="#e20530"/>
      <stop offset=".1" stop-color="#db0835"/>
      <stop offset=".23" stop-color="#ca1344"/>
      <stop offset=".39" stop-color="#ad255d"/>
      <stop offset=".57" stop-color="#843e81"/>
      <stop offset=".75" stop-color="#505fae"/>
      <stop offset=".95" stop-color="#1285e4"/>
      <stop offset="1" stop-color="#0091f4"/>
      <stop offset="1" stop-color="#0091f4"/>
    </linearGradient>
    <clipPath id="clippath-3">
      <path class="st1" d="M131.02,8.71c-8.73,1.78-21.13,21.38-38.31,52.43-1.57,2.84-3.06,5.53-4.07,7.27-1.32,2.28-1.36,4.84-.1,7.03,1.34,2.34,3.95,3.85,6.63,3.85h.02c2.51,0,4.7-1.3,6.02-3.56.87-1.5,21.34-36.79,21.91-37.82,2.71-4.91,8.34-15.14,12.57-15.14,1.55.01,3.36,1.84,5.1,5.14,6.22,11.79,20.55,43.24,28.25,60.14,2.29,5.03,4.1,9.01,4.95,10.81,1.16,2.49,3.32,3.91,5.93,3.91,1.04,0,2.11-.24,3.08-.7,4.38-2.05,5.37-6.74,3.8-10.09l-30.42-65c-3.37-7.19-8.78-18.74-20.96-18.74-1.38,0-2.84.15-4.39.47"/>
    </clipPath>
    <linearGradient id="Gradiente_sem_nome_4" data-name="Gradiente sem nome 4" x1="149.07" y1="1287.49" x2="150.07" y2="1287.49" gradientTransform="translate(-14800.39 128637.42) scale(99.87 -99.87)" gradientUnits="userSpaceOnUse">
      <stop offset="0" stop-color="#e20530"/>
      <stop offset="1" stop-color="#00ba77"/>
      <stop offset="1" stop-color="#00ba77"/>
    </linearGradient>
  </defs>
  <g>
    <path class="st10" d="M330.97,73.92c-18.82,0-34.69,14.46-34.69,34.97s15.87,34.97,34.69,34.97c14.32,0,23.59-7.16,27.1-10.95v17.41c-4.35,3.79-14.04,9.83-29.21,9.83-27.8,0-49.85-22.33-49.85-51.26s22.05-51.26,49.85-51.26c15.17,0,24.86,6.04,29.21,9.83v17.41c-3.65-3.93-12.78-10.95-27.1-10.95Z"/>
    <path class="st10" d="M362.7,108.89c0-28.37,22.33-51.26,50.69-51.26s50.83,22.89,50.83,51.26-22.33,51.26-50.83,51.26-50.69-22.89-50.69-51.26ZM446.82,108.89c0-19.1-14.04-34.97-33.42-34.97s-33.42,15.87-33.42,34.97,14.04,34.97,33.42,34.97,33.42-15.87,33.42-34.97Z"/>
    <path class="st10" d="M552.83,108.89c0,27.95-19.66,49.85-48.03,49.85h-34.26V59.04h34.26c28.37,0,48.03,21.91,48.03,49.85ZM535.56,108.89c0-21.63-13.48-33.56-30.75-33.56h-16.99v67.12h16.99c17.27,0,30.75-11.94,30.75-33.56Z"/>
    <path class="st10" d="M576.84,75.33v24.43h30.33v16.29h-30.33v26.4h38.62v16.29h-55.89V59.04h55.89v16.29h-38.62Z"/>
    <path class="st10" d="M727.8,59.04v99.7h-17.41v-68.53l-31.32,49.99h-7.02l-31.32-49.99v68.53h-17.27V59.04h17.27l34.83,55.05,34.83-55.05h17.41Z"/>
    <path class="st10" d="M799.55,136.83h-39.88l-7.86,21.91h-17.97l35.95-99.7h19.66l35.95,99.7h-17.97l-7.86-21.91ZM793.65,120.4l-14.04-38.9-14.04,38.9h28.08Z"/>
    <path class="st10" d="M867.66,127.42h-17.55v31.32h-17.27V59.04h37.49c18.12,0,34.97,12.92,34.97,34.26,0,15.17-8.57,26.12-20.08,31.03l21.06,34.4h-19.52l-19.1-31.32ZM850.1,111.14h20.22c9.69,0,17.69-6.74,17.69-17.83s-8-17.97-17.69-17.97h-20.22v35.81Z"/>
  </g>
  <g>
    <path class="st6" d="M322.3,186.53v35.08h-6.13v-24.11l-11.02,17.59h-2.47l-11.02-17.59v24.11h-6.08v-35.08h6.08l12.25,19.37,12.25-19.37h6.13Z"/>
    <path class="st6" d="M348.83,213.9h-14.03l-2.77,7.71h-6.32l12.65-35.08h6.92l12.65,35.08h-6.32l-2.77-7.71ZM346.75,208.12l-4.94-13.69-4.94,13.69h9.88Z"/>
    <path class="st6" d="M373.23,210.6h-6.18v11.02h-6.08v-35.08h13.19c6.37,0,12.3,4.55,12.3,12.06,0,5.34-3.01,9.19-7.07,10.92l7.41,12.1h-6.87l-6.72-11.02ZM367.06,204.86h7.12c3.41,0,6.23-2.37,6.23-6.28s-2.82-6.32-6.23-6.32h-7.12v12.6Z"/>
    <path class="st6" d="M390.03,186.53h6.08v35.08h-6.08v-35.08Z"/>
    <path class="st6" d="M417.79,191.77c-6.62,0-12.2,5.09-12.2,12.3s5.58,12.3,12.2,12.3c5.04,0,8.3-2.52,9.54-3.85v6.13c-1.53,1.33-4.94,3.46-10.28,3.46-9.78,0-17.54-7.86-17.54-18.03s7.76-18.03,17.54-18.03c5.34,0,8.75,2.12,10.28,3.46v6.13c-1.29-1.38-4.5-3.85-9.54-3.85Z"/>
    <path class="st6" d="M452.67,213.9h-14.03l-2.77,7.71h-6.32l12.65-35.08h6.92l12.65,35.08h-6.32l-2.77-7.71ZM450.6,208.12l-4.94-13.69-4.94,13.69h9.88ZM448.03,181.44h-4.74l3.9-7.81h6.23l-5.38,7.81Z"/>
    <path class="st6" d="M511.07,204.07c0,9.83-6.92,17.54-16.9,17.54h-12.06v-35.08h12.06c9.98,0,16.9,7.71,16.9,17.54ZM504.99,204.07c0-7.61-4.74-11.81-10.82-11.81h-5.98v23.62h5.98c6.08,0,10.82-4.2,10.82-11.81Z"/>
    <path class="st6" d="M519.91,192.26v8.6h10.67v5.73h-10.67v9.29h13.59v5.73h-19.67v-35.08h19.67v5.73h-13.59Z"/>
    <path class="st6" d="M541.65,210.99c.2,3.66,2.82,5.39,5.78,5.39,3.26,0,5.04-1.68,5.04-3.75,0-2.82-2.67-4.15-6.67-6.32-7.07-4.05-9.49-6.57-9.49-11.26,0-5.34,4.59-8.99,10.38-8.99,6.37,0,10.57,4.74,10.72,10.72h-6.08c-.15-3.11-1.98-4.99-4.64-4.99-2.32,0-4.3,1.38-4.3,3.51,0,2.67,2.03,3.71,5.58,5.58,6.67,3.61,10.57,6.62,10.57,11.96,0,5.93-4.99,9.29-11.12,9.29-7.36,0-11.71-5.34-11.86-11.12h6.08Z"/>
    <path class="st6" d="M567.48,192.26v8.6h10.67v5.73h-10.67v9.29h13.59v5.73h-19.67v-35.08h19.67v5.73h-13.59Z"/>
    <path class="st6" d="M614.91,186.53v35.08h-6.08l-17.79-24.85v24.85h-6.08v-35.08h6.08l17.79,24.85v-24.85h6.08Z"/>
    <path class="st6" d="M649.1,186.53l-11.86,35.08h-7.12l-11.86-35.08h6.32l9.09,27.47,9.09-27.47h6.32Z"/>
    <path class="st6" d="M650.14,204.07c0-9.98,7.86-18.03,17.84-18.03s17.89,8.05,17.89,18.03-7.86,18.03-17.89,18.03-17.84-8.05-17.84-18.03ZM679.73,204.07c0-6.72-4.94-12.3-11.76-12.3s-11.76,5.58-11.76,12.3,4.94,12.3,11.76,12.3,11.76-5.58,11.76-12.3Z"/>
    <path class="st6" d="M709.72,215.88v5.73h-20.41v-35.08h6.08v29.35h14.33Z"/>
    <path class="st6" d="M736.5,186.53l-11.86,35.08h-7.12l-11.86-35.08h6.32l9.09,27.47,9.09-27.47h6.32Z"/>
    <path class="st6" d="M740.25,186.53h6.08v35.08h-6.08v-35.08Z"/>
    <path class="st6" d="M786.64,186.53v35.08h-6.13v-24.11l-11.02,17.59h-2.47l-11.02-17.59v24.11h-6.08v-35.08h6.08l12.25,19.37,12.25-19.37h6.13Z"/>
    <path class="st6" d="M796.91,192.26v8.6h10.67v5.73h-10.67v9.29h13.59v5.73h-19.67v-35.08h19.67v5.73h-13.59Z"/>
    <path class="st6" d="M844.34,186.53v35.08h-6.08l-17.79-24.85v24.85h-6.08v-35.08h6.08l17.79,24.85v-24.85h6.08Z"/>
    <path class="st6" d="M869.64,192.26h-8.3v29.35h-6.08v-29.35h-8.3v-5.73h22.68v5.73Z"/>
    <path class="st6" d="M869.78,204.07c0-9.98,7.86-18.03,17.84-18.03s17.89,8.05,17.89,18.03-7.86,18.03-17.89,18.03-17.84-8.05-17.84-18.03ZM899.38,204.07c0-6.72-4.94-12.3-11.76-12.3s-11.76,5.58-11.76,12.3,4.94,12.3,11.76,12.3,11.76-5.58,11.76-12.3Z"/>
  </g>
  <g>
    <g class="st9">
      <rect class="st2" x="21.57" y="78.09" width="108.53" height="101.26"/>
    </g>
    <g class="st3">
      <rect class="st0" x="147.46" y="44.86" width="104.76" height="103.21"/>
    </g>
    <g class="st7">
      <rect class="st8" x="93.97" y="118.99" width="105.02" height="96.86"/>
    </g>
    <g class="st4">
      <rect class="st5" x="87.28" y="8.24" width="101.08" height="94.52"/>
    </g>
  </g>
</svg>